<svg version="1.1" id="Layer_1" xmlns="http://www.w3.org/2000/svg" xmlns:xlink="http://www.w3.org/1999/xlink" x="0px" y="0px" viewBox="0 0 132.6 132.6" style="enable-background:new 0 0 132.6 132.6;" xml:space="preserve">
 <style type="text/css">
  .st0{fill:#F8485E;}
 </style>
 <g>
  <path class="st0" d="M66.4,0C29.8-0.1,0.1,29.6,0,66.2s29.6,66.3,66.2,66.4s66.3-29.6,66.4-66.2c0,0,0-0.1,0-0.1
		C132.6,29.7,103,0.1,66.4,0 M110.5,61.3H85.1v46.3H55c-16.3,0-31-9.9-31-31c0-15.7,8.2-31,31-31h7c1.8,5.2,3.1,10.5,3.9,15.9H55.4
		c-9.4,0-14.7,5.1-14.7,15.2c0,9.5,5,15.2,14.7,15.2h13.4V22.1h16.3v23.6h25.4V61.3z">
  </path>
 </g>
</svg>