<?xml version="1.0" encoding="utf-8"?>
<!-- Generator: Adobe Illustrator 28.1.0, SVG Export Plug-In . SVG Version: 6.00 Build 0)  -->
<svg version="1.1" xmlns="http://www.w3.org/2000/svg" xmlns:xlink="http://www.w3.org/1999/xlink" x="0px" y="0px"
	 viewBox="0 0 320 320" style="enable-background:new 0 0 320 320;" xml:space="preserve">
<style type="text/css">
	.st0{fill:#0381EA;}
	.st1{font-family:'ArialMT';}
	.st2{font-size:15.6287px;}
	.st3{fill:#073459;}
	.st4{fill:none;}
	.st5{font-family:'FranklinGothic-Heavy';}
	.st6{font-size:60.3715px;}
	.st7{font-size:69.1307px;}
</style>
<g id="Layer_1">
	<text transform="matrix(1.0186 0 0 1 72.8628 274.4805)" class="st0 st1 st2">let’s conquer the world</text>
	<path class="st3" d="M57.45,142c24.68,10.72,62.58,23.02,109,21.8c44.1-1.16,116.29-15.07,120.74-45.28
		c1.05-7.15-1.16-18.75-20.12-35.22c23.13,9.74,37.48,29.19,35.22,45.28c-3.13,22.23-36.34,32.96-48.63,36.89
		c-6.87,2.2-13.06,3.17-25.15,5.03c-14,2.15-32.52,5-55.34,5.03c-27.71,0.04-60.65,0.09-93.91-18.45
		C69.47,151.64,62.12,145.95,57.45,142z"/>
	<polygon class="st3" points="79.42,163.8 56.24,204.05 250.35,204.05 235.21,163.8 	"/>
	<path class="st0" d="M64.16,29.64c-5.12,3.16-26.75,17.17-26.83,36.89c-0.02,4.68,1.12,20.56,35.22,41.92
		c54.18,33.95,125.43,40.28,174.41,40.25c-42.22,6.51-76.39,3.61-98.94,0c-25.87-4.14-114.21-18.28-127.45-67.08
		c-1.49-5.48-1.71-10.25-1.68-13.42c0.1-4.71,1.02-11.6,5.03-18.45C35.66,29.7,62.43,29.62,64.16,29.64z"/>
	<polyline class="st4" points="63.88,51.44 63.88,115.28 78.66,115.28 	"/>
	<polygon class="st0" points="63.88,52.23 63.88,118.72 78.66,118.72 78.66,68.21 231.69,68.21 231.69,142.41 246.95,137.82 
		246.21,52.23 	"/>
	<text transform="matrix(1.0581 0 0 1 13.1558 253.2617)" class="st0 st5 st6">BOYOtech</text>
	<text transform="matrix(1.0389 0 0 1 168.9395 127.5112)" class="st0 st5 st7">B</text>
</g>
<g id="Layer_4">
</g>
</svg>
